# xmcd CD database file
#
# Track frame offsets:
#	150
#	14412
#	28396
#	42521
#	56418
#	70136
#	83948
#	97412
#	109478
#	121566
#	136346
#	150263
#	164285
#	183804
#	205115
#	225539
#	244473
#	259676
#	272905
#	286277
#	300530
#	314149
#	326597
#
# Disc length: 4537 seconds
#
# Revision: 0
# Processed by: cddbd v1.5.2PL0 Copyright (c) Steve Scherf et al.
# Submitted via: CDex 1.51
#
DISCID=4d11b717
DTITLE=Red Nichols - The Complete Brunswick Recordings - Volume 4
DYEAR=1900
DGENRE=Jazz
TTITLE0=I'm Marching Home To You 1
TTITLE1=I'm Marching Home To You 2
TTITLE2=Building A Nest For Mary 1
TTITLE3=Building A Nest For Mary 2
TTITLE4=I Used To Love Her In The Moonlight 1
TTITLE5=I Used To Love Her In The Moonlight 2
TTITLE6=I Used To Love Her In The Moonlight 3
TTITLE7=Indiana 1
TTITLE8=Indiana 2
TTITLE9=Dinah
TTITLE10=On The Alamo 1
TTITLE11=On The Alamo 2
TTITLE12=Sally Won't You Come Back?
TTITLE13=It Had To Be You
TTITLE14=I'll See You In My Dreams
TTITLE15=Some Of These Days
TTITLE16=Who Cares?
TTITLE17=Rose Of Washington Square
TTITLE18=I May Be Wrong
TTITLE19=The New Yorkers
TTITLE20=They Didn't Believe Me
TTITLE21=Wait For The Happy Ending
TTITLE22=Can't We Be Friends?
EXTD=
EXTT0=
EXTT1=
EXTT2=
EXTT3=
EXTT4=
EXTT5=
EXTT6=
EXTT7=
EXTT8=
EXTT9=
EXTT10=
EXTT11=
EXTT12=
EXTT13=
EXTT14=
EXTT15=
EXTT16=
EXTT17=
EXTT18=
EXTT19=
EXTT20=
EXTT21=
EXTT22=
PLAYORDER=
